PathFileType	4	(X/Y/Z)	C:\Users\WrightLab\Desktop\Jo\P1_boxCal15.trc
DataRate	CameraRate	NumFrames	NumMarkers	Units	OrigDataRate	OrigDataStartFrame	OrigNumFrames
100.00	100.00	       10	19	mm	100.00	381	       507
Frame#	Time	Headset_Front			Headset_Back			Headset_Left			Headset_Right			Left_Shoulder			Right_Shoulder			Sternum			C7			Left Elbow			Right Elbow			Left Wrist			Right Wrist			Left ASIS			Right ASIS			S2			Left Knee			Right Knee			Left Ankle			Right Ankle			
		X1	Y1	Z1	X2	Y2	Z2	X3	Y3	Z3	X4	Y4	Z4	X5	Y5	Z5	X6	Y6	Z6	X7	Y7	Z7	X8	Y8	Z8	X9	Y9	Z9	X10	Y10	Z10	X11	Y11	Z11	X12	Y12	Z12	X13	Y13	Z13	X14	Y14	Z14	X15	Y15	Z15	X16	Y16	Z16	X17	Y17	Z17	X18	Y18	Z18	X19	Y19	Z19	

381	3.800	-253.18500	932.50244	1851.83691	-46.79416	971.84448	1714.56262							-240.55577	1496.92065	1761.83179				-254.15538	1303.08875	1555.77783	-108.60662	1295.56726	1706.05701	-348.90665	1216.38013	1796.09338	-549.28772	1031.31897	1553.89233				-479.50375	1306.16589	1616.04797				-452.71600	481.32684	1715.09875	-382.43069	117.08881	1723.47107	-250.65685	915.96210	1523.82654	-75.68212	516.07568	1848.89026	-445.01480	928.84406	1793.05334	7.02423	818.66577	1839.43164	
382	3.810	-258.57394	933.55829	1859.10278	-50.21100	971.96240	1724.17786							-244.53183	1497.63220	1768.69006				-256.60931	1303.90295	1562.06152	-111.53413	1296.33533	1712.42249	-351.91965	1217.36182	1801.85352	-555.31250	1033.20398	1563.36365				-482.00656	1307.40332	1623.41663				-454.15543	480.70630	1715.65967	-382.39124	117.25814	1723.37268	-253.08163	916.95538	1530.75281	-83.54111	519.67712	1865.62280	-449.64590	931.06683	1799.10974	7.01810	820.15900	1846.32813	
383	3.820	-264.67715	934.34033	1865.75903	-51.65493	972.81799	1731.79895							-248.14441	1498.64319	1776.49475				-259.54840	1303.97241	1568.87598	-114.57175	1296.79919	1718.66028	-355.12888	1218.57629	1807.90894	-561.00848	1035.43518	1570.74500				-484.56659	1308.69629	1628.97266				-455.20105	480.37970	1716.74768	-382.42349	117.19047	1723.39502	-256.04926	917.71967	1537.95190	-91.64272	523.34814	1882.56250	-453.68918	931.19275	1802.85242	6.59127	822.95416	1853.68335	
384	3.830	-269.86325	936.41638	1873.98071	-53.74264	973.36969	1740.52295							-251.45592	1498.71960	1783.19971				-262.07748	1304.90088	1575.14038	-117.94708	1297.49011	1725.62708	-358.51901	1219.79846	1814.65454	-566.52954	1037.22766	1579.12231				-487.08322	1309.91809	1635.34631				-457.61862	480.32172	1718.15039	-382.43625	117.10875	1723.47253	-258.24207	918.00043	1546.24243	-100.27465	527.24506	1897.07593	-458.28369	933.40985	1808.94934	6.98732	825.41949	1862.31616	
385	3.840	-275.73230	937.25751	1881.15820	-55.35044	975.58594	1745.48145							-255.15694	1498.85767	1790.00513				-264.62610	1305.18689	1581.18848	-120.95046	1298.30322	1732.28455	-362.41714	1220.43237	1820.52832	-572.47498	1039.09900	1586.97107				-489.78986	1311.02466	1640.75818				-459.56079	480.35397	1719.00293	-382.56805	117.16202	1723.42261	-260.13882	918.30042	1552.29395	-108.16615	530.50128	1912.44043	-462.40836	933.31818	1812.50232	7.36166	828.07300	1870.69421	
386	3.850	-281.86200	938.42694	1888.22290	-57.02571	976.14136	1754.04785							-258.32535	1499.42029	1797.34607				-267.40030	1305.55994	1588.08301	-124.62125	1298.92529	1738.93738	-366.52893	1221.77087	1827.14368	-578.07916	1040.49023	1595.71692				-492.71188	1312.11328	1647.33362				-460.57971	480.54205	1720.02209	-382.70261	117.19997	1723.39160	-260.88596	919.30023	1559.25793	-115.94100	532.08850	1926.35107	-467.12241	935.66351	1818.11572	7.69776	830.29919	1878.54724	
387	3.860	-287.50763	939.49591	1896.63306	-58.37936	978.74615	1759.34070							-262.27371	1499.28174	1804.67126				-269.42551	1305.88672	1595.01160	-127.99400	1299.67969	1747.86218	-370.29147	1221.62073	1831.65027	-583.78650	1042.02734	1603.03186				-495.13434	1312.28979	1652.90735				-462.44070	480.26154	1722.69983	-382.93555	117.41145	1723.29883	-262.02979	918.30725	1568.34143	-125.55227	535.81525	1939.30078	-471.51050	935.56598	1821.02002	8.38868	833.15051	1887.78796	
388	3.870	-293.58936	940.54395	1902.84448	-56.88365	980.64893	1765.33105							-264.97537	1499.20520	1810.91077				-271.81219	1305.88782	1601.15161	-131.39314	1300.12195	1754.92712	-374.56131	1222.05688	1838.10266	-589.11682	1043.05469	1612.21301				-497.64999	1312.79236	1658.74646				-464.45462	479.81369	1727.30920	-383.27887	117.27814	1723.97583	-262.64053	919.26416	1576.89514	-134.90073	538.57587	1952.11572	-475.95627	936.39325	1825.48230	8.79898	835.40454	1894.56445	
389	3.880	-299.26825	941.05188	1910.06140	-58.26392	982.42279	1773.86255							-268.43842	1498.60425	1817.50000				-273.95218	1305.89868	1607.70862	-134.90073	1300.94104	1763.15125	-378.32343	1222.84412	1843.75964	-594.07678	1044.31165	1620.32251				-500.12799	1314.59155	1657.96765				-465.42252	479.52652	1729.48523	-383.51483	117.46115	1723.88306	-262.38205	918.86530	1583.90002	-143.06113	540.82690	1965.14331	-480.22488	936.92657	1828.63049	9.46743	838.22644	1902.75488	
390	3.890	-304.98306	940.91797	1917.65759	-59.38309	983.05151	1781.26819							-271.70325	1498.94226	1824.48767				-276.17468	1305.85779	1614.15662	-138.23479	1301.42126	1770.10559	-383.14883	1223.03772	1849.83972	-599.12244	1045.12866	1628.46924				-502.42175	1314.82251	1662.32068				-467.36078	478.21942	1734.06262	-383.73355	117.63934	1724.63965	-262.97552	918.92627	1590.20190	-153.56082	541.52808	1974.89099	-484.26477	936.41785	1831.86633	9.75116	840.63782	1910.73621	
